<?xml version="1.0" encoding="UTF-8"?> <svg xmlns="http://www.w3.org/2000/svg" xmlns:xlink="http://www.w3.org/1999/xlink" version="1.1" id="Capa_1" x="0px" y="0px" viewBox="0 0 456 195.9" style="enable-background:new 0 0 456 195.9;" xml:space="preserve"> <g> <path d="M152.2,118.4l-0.6,1.6c-8.9,26.2-31.5,42.4-58.9,42.4c-16.5-0.1-32.3-6.9-43.6-19c-24.4-25.5-24.4-65.7,0-91.1 c11.3-12.1,27.1-19,43.6-19.1c27.5,0,48.4,14.6,57.3,40.1l0.6,1.6h31.3l-0.8-3c-5.3-21-16.4-38.6-32-51s-35.1-19-56.4-19 C67.9,2.1,44.3,12.2,27.1,30.1l0,0C-9,68-9,127.5,27.1,165.4c17,18.1,40.8,28.3,65.6,28.2c43.5,0,78.7-28.4,89.7-72.3l0.8-3 L152.2,118.4z"></path> <polygon points="241.2,165.2 241.2,115 324.8,115 324.8,86 241.2,86 241.2,36.1 326.7,36.1 326.7,7.4 212.2,7.4 212.2,194 327,194 327,165.2 "></polygon> <rect x="360.4" y="6.9" width="28.9" height="187.1"></rect> <path d="M456,176.6c0.3,9.7-6.8,17.4-18,17.4c-10,0-17.1-7.7-17.1-17.4c-0.3-9.5,7.3-17.5,16.8-17.7c0.3,0,0.6,0,0.9,0 C449.3,158.8,456,166.6,456,176.6z"></path> </g> </svg> 