<svg width="16" height="16" viewBox="0 0 16 16" fill="none" xmlns="http://www.w3.org/2000/svg">
<path d="M10.4986 10.2445C10.4981 10.2434 10.4972 10.2422 10.4966 10.2406L10.4947 10.2357C10.0693 8.98591 9.55366 8.00855 8.77887 7.23373C8.00408 6.45893 7.02668 5.94326 5.77692 5.51791L5.77203 5.51596L5.77008 5.51498C5.76929 5.51195 5.76716 5.50757 5.76715 5.50131C5.76715 5.49485 5.76881 5.48908 5.77008 5.48471C5.77062 5.48287 5.77162 5.48176 5.77203 5.4808C5.77315 5.48019 5.77453 5.47885 5.77692 5.47787C7.0268 5.05251 8.00403 4.53593 8.77887 3.76108C9.55364 2.98625 10.0693 2.00893 10.4947 0.759124L10.4966 0.754241L10.4976 0.752288C10.5008 0.751486 10.5053 0.750335 10.5103 0.750335C10.5155 0.750362 10.5198 0.751436 10.523 0.752288L10.523 0.754241L10.525 0.759124L10.689 1.21518C11.0832 2.25012 11.5629 3.08311 12.2408 3.76108C13.0157 4.53596 13.9938 5.0525 15.2437 5.47787L15.2476 5.47885L15.2506 5.47983C15.2513 5.48284 15.2525 5.48732 15.2525 5.4935C15.2525 5.49983 15.2518 5.50577 15.2506 5.5101C15.2499 5.51227 15.249 5.51403 15.2486 5.51498C15.2469 5.51591 15.2438 5.51716 15.2388 5.51889L15.2398 5.51987C13.9917 5.94498 13.0148 6.45966 12.2408 7.23373C11.4661 8.00854 10.9503 8.98595 10.525 10.2357L10.523 10.2406C10.5226 10.2419 10.5234 10.2435 10.523 10.2445C10.5198 10.2453 10.5153 10.2454 10.5103 10.2455C10.5059 10.2455 10.5016 10.2451 10.4986 10.2445ZM3.00055 14.7054C2.81362 14.3279 2.58758 13.9946 2.29742 13.7044C2.00518 13.4122 1.66957 13.1851 1.28864 12.9974C1.66956 12.8097 2.00518 12.5825 2.29742 12.2904C2.58734 12.0004 2.81371 11.6676 3.00055 11.2904C3.18733 11.6673 3.41197 12.0006 3.70172 12.2904C3.99406 12.5827 4.33038 12.8097 4.71149 12.9974C4.33041 13.1851 3.99404 13.4121 3.70172 13.7044C3.41177 13.9944 3.1874 14.3281 3.00055 14.7054Z" stroke="#5F6DF1" stroke-width="1.5"/>
</svg>
