<svg width="16" height="16" viewBox="0 0 16 16" fill="none" xmlns="http://www.w3.org/2000/svg">
<path fill-rule="evenodd" clip-rule="evenodd" d="M2.60499 10.2773C2.16499 11.5773 1.58503 12.1573 0.284984 12.5973C-0.0949599 12.7273 -0.09496 13.2673 0.284984 13.3973C1.58503 13.8373 2.16499 14.4174 2.60499 15.7173C2.73499 16.0973 3.26502 16.0973 3.39503 15.7173C3.83503 14.4174 4.41499 13.8373 5.71504 13.3973C6.09498 13.2673 6.09498 12.7273 5.71504 12.5973C4.41499 12.1573 3.83503 11.5773 3.39503 10.2773C3.26502 9.89734 2.735 9.89734 2.60499 10.2773ZM9.78499 0.517457C8.97499 2.89746 7.91499 3.95752 5.53498 4.76746C4.84504 5.00745 4.84504 5.99744 5.53498 6.22754C7.91499 7.03747 8.97499 8.09753 9.78499 10.4775C10.015 11.1675 11.005 11.1675 11.235 10.4775C12.045 8.09753 13.105 7.03748 15.485 6.22754C16.175 5.98755 16.175 4.99744 15.485 4.76746C13.105 3.95752 12.045 2.89746 11.235 0.517458C11.005 -0.172484 10.015 -0.172484 9.78499 0.517457Z" fill="url(#paint0_linear_2184_505)"/>
<defs>
<linearGradient id="paint0_linear_2184_505" x1="2.00238" y1="1.99991" x2="14.1785" y2="1.69203" gradientUnits="userSpaceOnUse">
<stop stop-color="#5F6DF1"/>
<stop offset="1" stop-color="#E22BD0"/>
</linearGradient>
</defs>
</svg>
