<svg width="16" height="16" viewBox="0 0 16 16" fill="none" xmlns="http://www.w3.org/2000/svg">
<path fill-rule="evenodd" clip-rule="evenodd" d="M3.9533 9.50688C3.62335 10.4817 3.18845 10.9167 2.21356 11.2466C1.92865 11.3441 1.92865 11.749 2.21356 11.8465C3.18845 12.1764 3.62335 12.6114 3.9533 13.5862C4.05079 13.8712 4.44825 13.8712 4.54574 13.5862C4.87569 12.6114 5.31059 12.1764 6.28547 11.8465C6.57039 11.749 6.57039 11.3441 6.28547 11.2466C5.31059 10.9167 4.87569 10.4817 4.54574 9.50688C4.44825 9.22192 4.05079 9.22192 3.9533 9.50688ZM9.33746 2.1881C8.73006 3.97283 7.93518 4.76775 6.15045 5.3751C5.63308 5.55507 5.63308 6.29745 6.15045 6.47C7.93518 7.07736 8.73006 7.87228 9.33746 9.657C9.50997 10.1744 10.2523 10.1744 10.4248 9.657C11.0322 7.87228 11.8271 7.07736 13.6118 6.47C14.1292 6.29003 14.1292 5.54756 13.6118 5.3751C11.8271 4.76775 11.0322 3.97283 10.4248 2.1881C10.2523 1.67072 9.50997 1.67072 9.33746 2.1881Z" fill="white"/>
</svg>
